<svg width="20" height="20" viewBox="0 0 16 16" version="1.1" xmlns="http://www.w3.org/2000/svg" xmlns:xlink="http://www.w3.org/1999/xlink" xml:space="preserve" xmlns:serif="http://www.serif.com/" style="fill-rule:evenodd;clip-rule:evenodd;stroke-linecap:round;stroke-linejoin:round;"><path d="M14.678,10.331c-0.229,-0.304 -1.08,-0.513 -1.44,-1.061c-0.36,-0.547 -0.655,-1.732 -1.571,-2.187c-0.916,-0.455 -2.668,-0.583 -3.668,-0.583c-1,0 -2.75,0.125 -3.668,0.582c-0.918,0.457 -1.211,1.641 -1.571,2.188c-0.36,0.546 -1.211,0.758 -1.44,1.062c-0.229,0.304 -0.39,2.226 -0.292,3.169c0.098,0.943 0.281,1.5 0.281,1.5l2.688,0c0.44,0 0.583,-0.165 1.483,-0.25c0.987,-0.094 1.956,-0.125 2.519,-0.125c0.562,0 1.562,0.031 2.549,0.125c0.9,0.085 1.048,0.25 1.483,0.25l2.656,0c0,0 0.183,-0.557 0.281,-1.5c0.098,-0.943 -0.064,-2.865 -0.292,-3.169Zm-2.178,4.669l1.75,0l0,0.5l-1.75,0l0,-0.5Zm-10.75,0l1.75,0l0,0.5l-1.75,0l0,-0.5Z" style="fill:none;fill-rule:nonzero;stroke:currentColor;stroke-width:1px;"/><path d="M11.39,12.661c-0.185,-0.213 -0.787,-0.392 -1.583,-0.511c-0.797,-0.119 -1.088,-0.15 -1.8,-0.15c-0.713,0 -1.037,0.051 -1.8,0.15c-0.764,0.099 -1.337,0.275 -1.583,0.511c-0.369,0.357 0.172,0.759 0.596,0.807c0.411,0.047 1.233,0.03 2.791,0.03c1.557,0 2.38,0.017 2.791,-0.03c0.424,-0.052 0.926,-0.425 0.589,-0.807Zm2.097,-2.066c-0.004,-0.051 -0.046,-0.092 -0.097,-0.094c-0.369,-0.013 -0.744,0.013 -1.408,0.209c-0.339,0.099 -0.658,0.258 -0.94,0.471c-0.071,0.056 -0.046,0.206 0.043,0.222c0.548,0.064 1.099,0.097 1.651,0.097c0.331,0 0.672,-0.094 0.736,-0.389c0.032,-0.17 0.038,-0.344 0.015,-0.516Zm-10.973,-0c0.004,-0.051 0.046,-0.092 0.097,-0.094c0.369,-0.013 0.744,0.013 1.408,0.209c0.339,0.099 0.658,0.258 0.94,0.471c0.071,0.056 0.046,0.206 -0.043,0.222c-0.548,0.064 -1.099,0.097 -1.651,0.097c-0.331,0 -0.672,-0.094 -0.736,-0.389c-0.032,-0.17 -0.038,-0.344 -0.015,-0.516Z" style="fill-rule:nonzero;"/><path d="M13.5,9l0.5,0m-12,0l0.5,0m-0.062,0.594c0,0 1.448,-0.375 5.562,-0.375c4.114,0 5.562,0.375 5.562,0.375" style="fill:none;fill-rule:nonzero;stroke:currentColor;stroke-width:1px;"/></svg>