<svg height="16" width="16" version="1.1" id="Layer_1" xmlns="http://www.w3.org/2000/svg" xmlns:xlink="http://www.w3.org/1999/xlink" viewBox="0 0 512 512" xml:space="preserve"><g><g><g><path style="fill:currentColor;" d="M483.132,423.762c10.894,0,19.609-9.804,19.609-20.698V20.698C502.74,8.715,492.936,0,482.043,0 H29.957C17.974,0,9.26,9.804,9.26,20.698v382.366c0,11.983,9.804,20.698,20.698,20.698H60.46v46.843H29.957 c-11.983,0-20.698,8.715-20.698,20.698C9.26,503.285,19.064,512,29.957,512h51.2h130.723h90.417h129.634h51.2 c10.894,0,19.609-8.715,19.609-20.698c0-11.983-9.804-20.698-20.698-20.698H452.63v-46.843H483.132z M50.655,41.396h411.779 v340.97h-30.502H322.996v-86.06c0-11.983-9.804-20.698-20.698-20.698h-90.417c-11.983,0-20.698,9.804-20.698,20.698v86.06H81.157 H50.655V41.396z M101.855,423.762h89.328v46.843h-89.328V423.762z M231.489,470.604v-153.6H281.6v153.6H231.489z M411.234,470.604h-88.238v-46.843h88.238V470.604z"/><path style="fill:currentColor;" d="M139.983,177.566c11.983,0,20.698-8.715,20.698-19.609V118.74 c0-11.983-8.715-20.698-20.698-20.698c-11.983,0-20.698,9.804-20.698,20.698v38.128 C119.285,168.851,129.089,177.566,139.983,177.566z"/><path style="fill:currentColor;" d="M256.545,177.566c10.894,0,20.698-8.715,20.698-19.609V118.74 c0-11.983-8.715-20.698-20.698-20.698s-20.698,9.804-20.698,20.698v38.128C235.847,168.851,245.651,177.566,256.545,177.566z"/><path style="fill:currentColor;" d="M373.106,177.566c10.894,0,20.698-8.715,20.698-19.609V118.74 c0-11.983-8.715-20.698-20.698-20.698c-11.983,0-20.698,9.804-20.698,20.698v38.128 C352.408,168.851,362.213,177.566,373.106,177.566z"/></g></g></g></svg>