<svg width="19" height="19" viewBox="0 0 16 16" version="1.1" xmlns="http://www.w3.org/2000/svg" xmlns:xlink="http://www.w3.org/1999/xlink" xml:space="preserve" xmlns:serif="http://www.serif.com/" style="fill-rule:evenodd;clip-rule:evenodd;stroke-linejoin:round;stroke-miterlimit:2;"><path d="M6.667,10.333l6.333,0c0.92,0 1.667,0.746 1.667,1.667l0,2c0,0.92 -0.746,1.667 -1.667,1.667l-10,0c-0.92,0 -1.667,-0.746 -1.667,-1.667l0,-10c0,-0.92 0.746,-1.667 1.667,-1.667l2,0c0.92,0 1.667,0.746 1.667,1.667l0,6.333Zm-0.724,4l-2.276,0c-0.184,0 -0.333,-0.149 -0.333,-0.333c0,-0.184 0.149,-0.333 0.333,-0.333l2.333,0l0,-1.333l-1.667,0c-0.184,0 -0.333,-0.149 -0.333,-0.333c0,-0.184 0.149,-0.333 0.333,-0.333l1.667,0l0,-1.333l-2.333,0c-0.184,0 -0.333,-0.149 -0.333,-0.333c0,-0.184 0.149,-0.333 0.333,-0.333l2.333,0l0,-1.333l-1.667,0c-0.184,0 -0.333,-0.149 -0.333,-0.333c0,-0.184 0.149,-0.333 0.333,-0.333l1.667,0l0,-1.333l-2.333,0c-0.184,0 -0.333,-0.149 -0.333,-0.333c0,-0.184 0.149,-0.333 0.333,-0.333l2.333,0l0,-1.333l-1.667,0c-0.184,0 -0.333,-0.149 -0.333,-0.333c0,-0.184 0.149,-0.333 0.333,-0.333l1.61,0c-0.137,-0.388 -0.508,-0.667 -0.943,-0.667l-2,0c-0.552,0 -1,0.448 -1,1l0,10c0,0.552 0.448,1 1,1l2,0c0.435,0 0.806,-0.278 0.943,-0.667Zm0.724,-3.333l0,3c0,0.375 -0.124,0.721 -0.333,1l6.667,0c0.552,0 1,-0.448 1,-1l0,-2c0,-0.552 -0.448,-1 -1,-1l-6.333,0Zm4.667,0.667l1.333,0c0.368,0 0.667,0.298 0.667,0.667l0,1.333c0,0.368 -0.298,0.667 -0.667,0.667l-1.333,0c-0.368,0 -0.667,-0.298 -0.667,-0.667l0,-1.333c0,-0.368 0.298,-0.667 0.667,-0.667Zm0,0.667l0,1.333l1.333,0l0,-1.333l-1.333,0Z" style="fill-rule:nonzero;"/></svg>